# xmcd CD database file
#
# Track frame offsets:
#	150
#	30200
#	54410
#	83723
#	95668
#	119863
#	143750
#	164618
#	185230
#	213400
#	224188
#
# Disc length: 3201 seconds
#
# Revision: 0
# Processed by: cddbd v1.4PL0 Copyright (c) Steve Scherf et al.
# Submitted via: CDex 1.50beta8
#
DISCID=aa0c7f0b
DTITLE=Howard Alden - A Good Likeness
DYEAR=1900
DGENRE=Jazz
TTITLE0=Nobody Else But Me
TTITLE1=The Peacocks
TTITLE2=Something to Live For
TTITLE3=Single Petal of a Rose
TTITLE4=Lotus Blossom
TTITLE5=The Eel's Nephew
TTITLE6=Turn Out the Stars
TTITLE7=No More
TTITLE8=Just as Though You Were Here
TTITLE9=Crepuscule with Nellie
TTITLE10=Echo of Spring
EXTD=
EXTT0=
EXTT1=
EXTT2=
EXTT3=
EXTT4=
EXTT5=
EXTT6=
EXTT7=
EXTT8=
EXTT9=
EXTT10=
PLAYORDER=
